<?xml version="1.0" standalone="no"?>
<!DOCTYPE svg PUBLIC "-//W3C//DTD SVG 20010904//EN"
 "http://www.w3.org/TR/2001/REC-SVG-20010904/DTD/svg10.dtd">
<svg version="1.0" xmlns="http://www.w3.org/2000/svg"
 width="900.000000pt" height="900.000000pt" viewBox="0 0 900.000000 900.000000"
 preserveAspectRatio="xMidYMid meet">

<g transform="translate(0.000000,900.000000) scale(0.100000,-0.100000)"
fill="#000000" stroke="none">
<path d="M4285 8254 c-801 -53 -1522 -332 -2150 -833 -154 -122 -434 -402
-556 -556 -462 -579 -725 -1209 -815 -1955 -25 -201 -25 -619 0 -820 90 -746
353 -1376 815 -1955 122 -154 402 -434 556 -556 579 -462 1209 -725 1955 -815
201 -25 619 -25 820 0 746 90 1376 353 1955 815 154 122 434 402 556 556 170
212 310 429 429 660 459 897 534 1964 205 2924 -143 417 -348 787 -634 1146
-122 154 -402 434 -556 556 -577 460 -1217 728 -1945 814 -131 15 -515 27
-635 19z m-443 -1155 c86 -22 184 -121 209 -212 17 -62 15 -145 -6 -207 -14
-41 -33 -70 -79 -116 -72 -71 -126 -94 -226 -94 -73 0 -116 11 -171 46 l-36
22 -90 -47 c-252 -133 -515 -349 -690 -566 -456 -565 -615 -1295 -434 -1996
159 -616 594 -1153 1166 -1440 l120 -61 3 1566 2 1566 128 0 127 0 525 -647
525 -646 3 1392 2 1391 23 -4 c12 -3 58 -12 102 -21 490 -100 962 -363 1318
-734 382 -399 616 -889 699 -1466 19 -132 16 -541 -5 -678 -84 -550 -317
-1030 -687 -1420 -243 -256 -583 -488 -903 -618 -53 -21 -61 -29 -85 -77 -30
-63 -95 -125 -160 -155 -69 -32 -198 -31 -267 3 -114 56 -185 169 -185 295 0
264 305 420 513 261 l44 -33 104 46 c615 276 1089 840 1253 1494 49 195 68
352 68 562 0 368 -75 681 -242 1015 -240 479 -667 870 -1175 1075 -48 19 -91
33 -94 29 -3 -3 -7 -658 -9 -1455 l-3 -1449 -123 0 -124 0 -33 38 c-19 21
-257 311 -529 644 l-495 607 -3 -1510 -2 -1511 -33 7 c-136 30 -343 104 -502
180 -260 125 -492 291 -706 504 -412 413 -650 894 -740 1496 -21 136 -18 539
5 685 61 396 192 740 404 1062 235 355 589 674 964 868 l106 55 16 52 c20 64
98 152 160 183 80 38 150 44 248 19z"/>
<path d="M3672 6924 c-97 -50 -108 -193 -20 -256 41 -29 106 -35 152 -13 100
48 114 192 24 258 -36 27 -114 32 -156 11z"/>
<path d="M5047 2316 c-109 -39 -141 -164 -63 -242 108 -108 277 -20 253 131
-14 87 -107 141 -190 111z"/>
</g>
</svg>
