<svg id="visual" viewBox="0 0 900 600" width="900" height="600" xmlns="http://www.w3.org/2000/svg" xmlns:xlink="http://www.w3.org/1999/xlink" version="1.1"><g stroke-width="1" stroke-linejoin="bevel"><path d="M439.5 318L470.5 348L470.5 318Z" fill="#5a4c3c" stroke="#5a4c3c"></path><path d="M439.5 318L418.5 351L470.5 348Z" fill="#986647" stroke="#986647"></path><path d="M464.5 418L516.4 365L470.5 348Z" fill="#cd7657" stroke="#cd7657"></path><path d="M470.5 348L532.4 318L470.5 318Z" fill="#986647" stroke="#986647"></path><path d="M418.5 351L433.5 403L470.5 348Z" fill="#4d443a" stroke="#4d443a"></path><path d="M516.4 365L532.4 318L470.5 348Z" fill="#a96c4b" stroke="#a96c4b"></path><path d="M484.5 245L427.5 257L470.5 318Z" fill="#a96c4b" stroke="#a96c4b"></path><path d="M470.5 318L427.5 257L439.5 318Z" fill="#a96c4b" stroke="#a96c4b"></path><path d="M439.5 318L372.6 350L418.5 351Z" fill="#68533e" stroke="#68533e"></path><path d="M359.6 289L372.6 350L439.5 318Z" fill="#403d39" stroke="#403d39"></path><path d="M418.5 351L387.6 406L433.5 403Z" fill="#403d39" stroke="#403d39"></path><path d="M433.5 403L464.5 418L470.5 348Z" fill="#a96c4b" stroke="#a96c4b"></path><path d="M532.4 318L484.5 245L470.5 318Z" fill="#986647" stroke="#986647"></path><path d="M372.6 350L387.6 406L418.5 351Z" fill="#986647" stroke="#986647"></path><path d="M415.5 466L481.5 464L464.5 418Z" fill="#876043" stroke="#876043"></path><path d="M427.5 257L359.6 289L439.5 318Z" fill="#68533e" stroke="#68533e"></path><path d="M464.5 418L524.4 418L516.4 365Z" fill="#4d443a" stroke="#4d443a"></path><path d="M516.4 365L598.4 343L532.4 318Z" fill="#876043" stroke="#876043"></path><path d="M532.4 318L534.4 250L484.5 245Z" fill="#a96c4b" stroke="#a96c4b"></path><path d="M416.5 194L373.6 241L427.5 257Z" fill="#403d39" stroke="#403d39"></path><path d="M427.5 257L373.6 241L359.6 289Z" fill="#a96c4b" stroke="#a96c4b"></path><path d="M516.4 186L463.5 208L484.5 245Z" fill="#a96c4b" stroke="#a96c4b"></path><path d="M484.5 245L463.5 208L427.5 257Z" fill="#cd7657" stroke="#cd7657"></path><path d="M481.5 464L530.4 441L524.4 418Z" fill="#5a4c3c" stroke="#5a4c3c"></path><path d="M524.4 418L568.4 409L516.4 365Z" fill="#a96c4b" stroke="#a96c4b"></path><path d="M532.4 318L574.4 249L534.4 250Z" fill="#cd7657" stroke="#cd7657"></path><path d="M481.5 464L524.4 418L464.5 418Z" fill="#68533e" stroke="#68533e"></path><path d="M415.5 466L464.5 418L433.5 403Z" fill="#e07a5f" stroke="#e07a5f"></path><path d="M530.4 441L568.4 409L524.4 418Z" fill="#876043" stroke="#876043"></path><path d="M327.6 234L324.6 292L359.6 289Z" fill="#a96c4b" stroke="#a96c4b"></path><path d="M359.6 289L324.6 292L372.6 350Z" fill="#cd7657" stroke="#cd7657"></path><path d="M303.6 417L364.6 439L387.6 406Z" fill="#cd7657" stroke="#cd7657"></path><path d="M364.6 439L415.5 466L387.6 406Z" fill="#876043" stroke="#876043"></path><path d="M387.6 406L415.5 466L433.5 403Z" fill="#986647" stroke="#986647"></path><path d="M313.6 357L387.6 406L372.6 350Z" fill="#4d443a" stroke="#4d443a"></path><path d="M598.4 343L594.4 308L532.4 318Z" fill="#a96c4b" stroke="#a96c4b"></path><path d="M324.6 292L313.6 357L372.6 350Z" fill="#cd7657" stroke="#cd7657"></path><path d="M568.4 409L598.4 343L516.4 365Z" fill="#775a40" stroke="#775a40"></path><path d="M463.5 208L416.5 194L427.5 257Z" fill="#bb7150" stroke="#bb7150"></path><path d="M373.6 241L327.6 234L359.6 289Z" fill="#e07a5f" stroke="#e07a5f"></path><path d="M594.4 308L574.4 249L532.4 318Z" fill="#e07a5f" stroke="#e07a5f"></path><path d="M534.4 250L516.4 186L484.5 245Z" fill="#986647" stroke="#986647"></path><path d="M587.4 214L516.4 186L534.4 250Z" fill="#e07a5f" stroke="#e07a5f"></path><path d="M463.5 208L430.5 167L416.5 194Z" fill="#403d39" stroke="#403d39"></path><path d="M370.6 488L433.5 492L415.5 466Z" fill="#775a40" stroke="#775a40"></path><path d="M415.5 466L433.5 492L481.5 464Z" fill="#775a40" stroke="#775a40"></path><path d="M521.4 498L567.4 448L530.4 441Z" fill="#a96c4b" stroke="#a96c4b"></path><path d="M521.4 498L530.4 441L481.5 464Z" fill="#876043" stroke="#876043"></path><path d="M530.4 441L567.4 448L568.4 409Z" fill="#5a4c3c" stroke="#5a4c3c"></path><path d="M568.4 409L616.3 356L598.4 343Z" fill="#4d443a" stroke="#4d443a"></path><path d="M364.6 196L327.6 234L373.6 241Z" fill="#e07a5f" stroke="#e07a5f"></path><path d="M257.7 342L277.7 406L313.6 357Z" fill="#986647" stroke="#986647"></path><path d="M653.3 398L616.3 356L568.4 409Z" fill="#403d39" stroke="#403d39"></path><path d="M598.4 343L637.3 288L594.4 308Z" fill="#403d39" stroke="#403d39"></path><path d="M626.3 250L587.4 214L574.4 249Z" fill="#4d443a" stroke="#4d443a"></path><path d="M367.6 157L364.6 196L416.5 194Z" fill="#cd7657" stroke="#cd7657"></path><path d="M416.5 194L364.6 196L373.6 241Z" fill="#cd7657" stroke="#cd7657"></path><path d="M492.5 138L430.5 167L463.5 208Z" fill="#403d39" stroke="#403d39"></path><path d="M303.6 417L324.6 446L364.6 439Z" fill="#cd7657" stroke="#cd7657"></path><path d="M364.6 439L370.6 488L415.5 466Z" fill="#cd7657" stroke="#cd7657"></path><path d="M313.6 357L303.6 417L387.6 406Z" fill="#e07a5f" stroke="#e07a5f"></path><path d="M277.7 406L303.6 417L313.6 357Z" fill="#4d443a" stroke="#4d443a"></path><path d="M324.6 446L370.6 488L364.6 439Z" fill="#68533e" stroke="#68533e"></path><path d="M494.5 518L521.4 498L481.5 464Z" fill="#68533e" stroke="#68533e"></path><path d="M494.5 518L481.5 464L433.5 492Z" fill="#986647" stroke="#986647"></path><path d="M626.3 250L574.4 249L594.4 308Z" fill="#4d443a" stroke="#4d443a"></path><path d="M574.4 249L587.4 214L534.4 250Z" fill="#a96c4b" stroke="#a96c4b"></path><path d="M573.4 160L527.4 163L516.4 186Z" fill="#a96c4b" stroke="#a96c4b"></path><path d="M516.4 186L492.5 138L463.5 208Z" fill="#a96c4b" stroke="#a96c4b"></path><path d="M616.3 356L637.3 288L598.4 343Z" fill="#cd7657" stroke="#cd7657"></path><path d="M483.5 550L494.5 518L433.5 492Z" fill="#cd7657" stroke="#cd7657"></path><path d="M637.3 288L626.3 250L594.4 308Z" fill="#e07a5f" stroke="#e07a5f"></path><path d="M303.6 417L252.7 453L324.6 446Z" fill="#876043" stroke="#876043"></path><path d="M354.6 552L416.5 546L370.6 488Z" fill="#775a40" stroke="#775a40"></path><path d="M257.7 342L313.6 357L324.6 292Z" fill="#bb7150" stroke="#bb7150"></path><path d="M430.5 167L367.6 157L416.5 194Z" fill="#403d39" stroke="#403d39"></path><path d="M364.6 196L302.6 194L327.6 234Z" fill="#bb7150" stroke="#bb7150"></path><path d="M411.5 115L367.6 157L430.5 167Z" fill="#68533e" stroke="#68533e"></path><path d="M246.7 287L324.6 292L260.7 236Z" fill="#e07a5f" stroke="#e07a5f"></path><path d="M246.7 287L257.7 342L324.6 292Z" fill="#403d39" stroke="#403d39"></path><path d="M527.4 163L492.5 138L516.4 186Z" fill="#bb7150" stroke="#bb7150"></path><path d="M532.4 559L575.4 497L521.4 498Z" fill="#403d39" stroke="#403d39"></path><path d="M521.4 498L575.4 497L567.4 448Z" fill="#bb7150" stroke="#bb7150"></path><path d="M644.3 453L653.3 398L568.4 409Z" fill="#876043" stroke="#876043"></path><path d="M616.3 356L680.2 349L637.3 288Z" fill="#403d39" stroke="#403d39"></path><path d="M322.6 153L302.6 194L364.6 196Z" fill="#5a4c3c" stroke="#5a4c3c"></path><path d="M644.3 453L568.4 409L567.4 448Z" fill="#bb7150" stroke="#bb7150"></path><path d="M587.4 214L573.4 160L516.4 186Z" fill="#68533e" stroke="#68533e"></path><path d="M536.4 110L481.5 106L492.5 138Z" fill="#5a4c3c" stroke="#5a4c3c"></path><path d="M617.3 189L573.4 160L587.4 214Z" fill="#cd7657" stroke="#cd7657"></path><path d="M260.7 236L324.6 292L327.6 234Z" fill="#5a4c3c" stroke="#5a4c3c"></path><path d="M315.6 509L370.6 488L324.6 446Z" fill="#e07a5f" stroke="#e07a5f"></path><path d="M370.6 488L416.5 546L433.5 492Z" fill="#a96c4b" stroke="#a96c4b"></path><path d="M494.5 518L532.4 559L521.4 498Z" fill="#68533e" stroke="#68533e"></path><path d="M672.2 159L617.3 189L695.2 184Z" fill="#876043" stroke="#876043"></path><path d="M626.3 250L617.3 189L587.4 214Z" fill="#876043" stroke="#876043"></path><path d="M275.7 204L260.7 236L327.6 234Z" fill="#5a4c3c" stroke="#5a4c3c"></path><path d="M416.5 546L483.5 550L433.5 492Z" fill="#4d443a" stroke="#4d443a"></path><path d="M283.7 145L275.7 204L302.6 194Z" fill="#876043" stroke="#876043"></path><path d="M302.6 194L275.7 204L327.6 234Z" fill="#cd7657" stroke="#cd7657"></path><path d="M481.5 106L430.5 167L492.5 138Z" fill="#403d39" stroke="#403d39"></path><path d="M481.5 106L411.5 115L430.5 167Z" fill="#986647" stroke="#986647"></path><path d="M367.6 157L322.6 153L364.6 196Z" fill="#5a4c3c" stroke="#5a4c3c"></path><path d="M324.6 117L322.6 153L367.6 157Z" fill="#4d443a" stroke="#4d443a"></path><path d="M636.3 493L644.3 453L567.4 448Z" fill="#775a40" stroke="#775a40"></path><path d="M266.7 504L315.6 509L324.6 446Z" fill="#e07a5f" stroke="#e07a5f"></path><path d="M695.2 405L680.2 349L653.3 398Z" fill="#e07a5f" stroke="#e07a5f"></path><path d="M653.3 398L680.2 349L616.3 356Z" fill="#cd7657" stroke="#cd7657"></path><path d="M637.3 288L690.2 262L626.3 250Z" fill="#876043" stroke="#876043"></path><path d="M536.4 110L492.5 138L527.4 163Z" fill="#986647" stroke="#986647"></path><path d="M224.8 430L252.7 453L277.7 406Z" fill="#bb7150" stroke="#bb7150"></path><path d="M277.7 406L252.7 453L303.6 417Z" fill="#e07a5f" stroke="#e07a5f"></path><path d="M224.8 430L277.7 406L205.8 369Z" fill="#a96c4b" stroke="#a96c4b"></path><path d="M260.7 236L230.8 260L246.7 287Z" fill="#e07a5f" stroke="#e07a5f"></path><path d="M246.7 287L217.8 288L257.7 342Z" fill="#a96c4b" stroke="#a96c4b"></path><path d="M229.8 201L230.8 260L260.7 236Z" fill="#5a4c3c" stroke="#5a4c3c"></path><path d="M411.5 115L366.6 114L367.6 157Z" fill="#a96c4b" stroke="#a96c4b"></path><path d="M360.6 40L366.6 114L411.5 115Z" fill="#cd7657" stroke="#cd7657"></path><path d="M577.4 111L536.4 110L573.4 160Z" fill="#a96c4b" stroke="#a96c4b"></path><path d="M573.4 160L536.4 110L527.4 163Z" fill="#876043" stroke="#876043"></path><path d="M483.5 550L532.4 559L494.5 518Z" fill="#a96c4b" stroke="#a96c4b"></path><path d="M575.4 497L636.3 493L567.4 448Z" fill="#5a4c3c" stroke="#5a4c3c"></path><path d="M478.5 600L532.4 559L483.5 550Z" fill="#403d39" stroke="#403d39"></path><path d="M273.7 533L332.6 539L315.6 509Z" fill="#68533e" stroke="#68533e"></path><path d="M315.6 509L332.6 539L370.6 488Z" fill="#68533e" stroke="#68533e"></path><path d="M416.5 546L478.5 600L483.5 550Z" fill="#a96c4b" stroke="#a96c4b"></path><path d="M332.6 539L354.6 552L370.6 488Z" fill="#a96c4b" stroke="#a96c4b"></path><path d="M230.8 260L217.8 288L246.7 287Z" fill="#e07a5f" stroke="#e07a5f"></path><path d="M588.4 535L636.3 493L575.4 497Z" fill="#a96c4b" stroke="#a96c4b"></path><path d="M693.2 445L695.2 405L653.3 398Z" fill="#e07a5f" stroke="#e07a5f"></path><path d="M532.4 559L588.4 535L575.4 497Z" fill="#a96c4b" stroke="#a96c4b"></path><path d="M699.2 301L690.2 262L637.3 288Z" fill="#775a40" stroke="#775a40"></path><path d="M680.2 349L699.2 301L637.3 288Z" fill="#876043" stroke="#876043"></path><path d="M730.2 330L699.2 301L680.2 349Z" fill="#cd7657" stroke="#cd7657"></path><path d="M205.8 369L277.7 406L257.7 342Z" fill="#5a4c3c" stroke="#5a4c3c"></path><path d="M252.7 453L266.7 504L324.6 446Z" fill="#876043" stroke="#876043"></path><path d="M693.2 445L653.3 398L644.3 453Z" fill="#876043" stroke="#876043"></path><path d="M217.8 288L205.8 369L257.7 342Z" fill="#bb7150" stroke="#bb7150"></path><path d="M366.6 114L324.6 117L367.6 157Z" fill="#a96c4b" stroke="#a96c4b"></path><path d="M322.6 153L283.7 145L302.6 194Z" fill="#68533e" stroke="#68533e"></path><path d="M275.7 204L229.8 201L260.7 236Z" fill="#986647" stroke="#986647"></path><path d="M633.3 136L577.4 111L573.4 160Z" fill="#e07a5f" stroke="#e07a5f"></path><path d="M536.4 110L515.4 67L481.5 106Z" fill="#cd7657" stroke="#cd7657"></path><path d="M633.3 136L573.4 160L617.3 189Z" fill="#775a40" stroke="#775a40"></path><path d="M324.6 117L283.7 145L322.6 153Z" fill="#403d39" stroke="#403d39"></path><path d="M162.8 230L149.8 304L217.8 288Z" fill="#775a40" stroke="#775a40"></path><path d="M220.8 504L266.7 504L252.7 453Z" fill="#403d39" stroke="#403d39"></path><path d="M318.6 600L380.6 600L354.6 552Z" fill="#876043" stroke="#876043"></path><path d="M283.7 145L229.8 201L275.7 204Z" fill="#876043" stroke="#876043"></path><path d="M162.8 393L192.8 417L205.8 369Z" fill="#876043" stroke="#876043"></path><path d="M670.2 491L644.3 453L636.3 493Z" fill="#403d39" stroke="#403d39"></path><path d="M670.2 491L693.2 445L644.3 453Z" fill="#68533e" stroke="#68533e"></path><path d="M672.2 159L633.3 136L617.3 189Z" fill="#e07a5f" stroke="#e07a5f"></path><path d="M622.3 568L670.2 491L636.3 493Z" fill="#986647" stroke="#986647"></path><path d="M403.5 600L478.5 600L416.5 546Z" fill="#bb7150" stroke="#bb7150"></path><path d="M532.4 559L564.4 600L588.4 535Z" fill="#986647" stroke="#986647"></path><path d="M588.4 535L622.3 568L636.3 493Z" fill="#775a40" stroke="#775a40"></path><path d="M266.7 504L273.7 533L315.6 509Z" fill="#bb7150" stroke="#bb7150"></path><path d="M380.6 600L403.5 600L416.5 546Z" fill="#876043" stroke="#876043"></path><path d="M230.8 536L273.7 533L266.7 504Z" fill="#e07a5f" stroke="#e07a5f"></path><path d="M380.6 600L416.5 546L354.6 552Z" fill="#a96c4b" stroke="#a96c4b"></path><path d="M579.4 54L515.4 67L536.4 110Z" fill="#403d39" stroke="#403d39"></path><path d="M481.5 106L459.5 51L411.5 115Z" fill="#986647" stroke="#986647"></path><path d="M366.6 114L360.6 40L324.6 117Z" fill="#bb7150" stroke="#bb7150"></path><path d="M579.4 54L536.4 110L577.4 111Z" fill="#4d443a" stroke="#4d443a"></path><path d="M699.2 301L728.2 293L690.2 262Z" fill="#e07a5f" stroke="#e07a5f"></path><path d="M695.2 184L617.3 189L626.3 250Z" fill="#775a40" stroke="#775a40"></path><path d="M726.2 400L730.2 330L680.2 349Z" fill="#775a40" stroke="#775a40"></path><path d="M726.2 400L680.2 349L695.2 405Z" fill="#bb7150" stroke="#bb7150"></path><path d="M162.8 393L205.8 369L141.8 343Z" fill="#876043" stroke="#876043"></path><path d="M205.8 369L192.8 417L224.8 430Z" fill="#cd7657" stroke="#cd7657"></path><path d="M224.8 430L220.8 504L252.7 453Z" fill="#a96c4b" stroke="#a96c4b"></path><path d="M730.2 330L728.2 293L699.2 301Z" fill="#403d39" stroke="#403d39"></path><path d="M700.2 91L628.3 117L633.3 136Z" fill="#876043" stroke="#876043"></path><path d="M633.3 136L628.3 117L577.4 111Z" fill="#403d39" stroke="#403d39"></path><path d="M318.6 600L354.6 552L332.6 539Z" fill="#775a40" stroke="#775a40"></path><path d="M695.2 184L626.3 250L690.2 262Z" fill="#cd7657" stroke="#cd7657"></path><path d="M728.2 464L726.2 400L693.2 445Z" fill="#403d39" stroke="#403d39"></path><path d="M693.2 445L726.2 400L695.2 405Z" fill="#4d443a" stroke="#4d443a"></path><path d="M515.4 67L459.5 51L481.5 106Z" fill="#5a4c3c" stroke="#5a4c3c"></path><path d="M478.5 600L547.4 600L532.4 559Z" fill="#a96c4b" stroke="#a96c4b"></path><path d="M724.2 193L695.2 184L690.2 262Z" fill="#e07a5f" stroke="#e07a5f"></path><path d="M459.5 51L427.5 49L411.5 115Z" fill="#68533e" stroke="#68533e"></path><path d="M564.4 600L622.3 568L588.4 535Z" fill="#876043" stroke="#876043"></path><path d="M547.4 600L564.4 600L532.4 559Z" fill="#a96c4b" stroke="#a96c4b"></path><path d="M192.8 417L220.8 504L224.8 430Z" fill="#cd7657" stroke="#cd7657"></path><path d="M273.7 533L318.6 600L332.6 539Z" fill="#cd7657" stroke="#cd7657"></path><path d="M149.8 304L205.8 369L217.8 288Z" fill="#403d39" stroke="#403d39"></path><path d="M192.8 417L159.8 503L220.8 504Z" fill="#4d443a" stroke="#4d443a"></path><path d="M252.7 600L318.6 600L273.7 533Z" fill="#403d39" stroke="#403d39"></path><path d="M168.8 547L230.8 536L220.8 504Z" fill="#bb7150" stroke="#bb7150"></path><path d="M220.8 504L230.8 536L266.7 504Z" fill="#68533e" stroke="#68533e"></path><path d="M324.6 117L251.7 109L283.7 145Z" fill="#986647" stroke="#986647"></path><path d="M283.7 145L197.8 136L229.8 201Z" fill="#cd7657" stroke="#cd7657"></path><path d="M162.8 230L217.8 288L230.8 260Z" fill="#986647" stroke="#986647"></path><path d="M264.7 53L251.7 109L324.6 117Z" fill="#876043" stroke="#876043"></path><path d="M749.2 503L728.2 464L670.2 491Z" fill="#a96c4b" stroke="#a96c4b"></path><path d="M670.2 491L728.2 464L693.2 445Z" fill="#403d39" stroke="#403d39"></path><path d="M778.1 312L728.2 293L730.2 330Z" fill="#bb7150" stroke="#bb7150"></path><path d="M752.2 259L724.2 193L690.2 262Z" fill="#e07a5f" stroke="#e07a5f"></path><path d="M746.2 146L700.2 91L672.2 159Z" fill="#a96c4b" stroke="#a96c4b"></path><path d="M672.2 159L700.2 91L633.3 136Z" fill="#775a40" stroke="#775a40"></path><path d="M752.2 259L690.2 262L728.2 293Z" fill="#a96c4b" stroke="#a96c4b"></path><path d="M643.3 37L579.4 54L628.3 117Z" fill="#4d443a" stroke="#4d443a"></path><path d="M628.3 117L579.4 54L577.4 111Z" fill="#e07a5f" stroke="#e07a5f"></path><path d="M512.4 0L471.5 0L459.5 51Z" fill="#cd7657" stroke="#cd7657"></path><path d="M386.6 0L360.6 40L427.5 49Z" fill="#876043" stroke="#876043"></path><path d="M778.1 312L730.2 330L792.1 365Z" fill="#775a40" stroke="#775a40"></path><path d="M778.1 312L752.2 259L728.2 293Z" fill="#a96c4b" stroke="#a96c4b"></path><path d="M162.8 230L230.8 260L229.8 201Z" fill="#a96c4b" stroke="#a96c4b"></path><path d="M471.5 0L427.5 49L459.5 51Z" fill="#4d443a" stroke="#4d443a"></path><path d="M427.5 49L360.6 40L411.5 115Z" fill="#5a4c3c" stroke="#5a4c3c"></path><path d="M144.8 202L162.8 230L229.8 201Z" fill="#bb7150" stroke="#bb7150"></path><path d="M149.8 304L141.8 343L205.8 369Z" fill="#a96c4b" stroke="#a96c4b"></path><path d="M114.9 394L141.8 343L89.9 334Z" fill="#876043" stroke="#876043"></path><path d="M792.1 365L730.2 330L726.2 400Z" fill="#5a4c3c" stroke="#5a4c3c"></path><path d="M746.2 146L695.2 184L724.2 193Z" fill="#986647" stroke="#986647"></path><path d="M622.3 568L704.2 540L670.2 491Z" fill="#e07a5f" stroke="#e07a5f"></path><path d="M728.2 464L786.1 399L726.2 400Z" fill="#4d443a" stroke="#4d443a"></path><path d="M645.3 600L704.2 540L622.3 568Z" fill="#bb7150" stroke="#bb7150"></path><path d="M251.7 109L197.8 136L283.7 145Z" fill="#403d39" stroke="#403d39"></path><path d="M191.8 91L197.8 136L251.7 109Z" fill="#68533e" stroke="#68533e"></path><path d="M386.6 0L325.6 35L360.6 40Z" fill="#403d39" stroke="#403d39"></path><path d="M360.6 40L325.6 35L324.6 117Z" fill="#bb7150" stroke="#bb7150"></path><path d="M564.4 600L645.3 600L622.3 568Z" fill="#68533e" stroke="#68533e"></path><path d="M512.4 0L459.5 51L515.4 67Z" fill="#cd7657" stroke="#cd7657"></path><path d="M230.8 536L252.7 600L273.7 533Z" fill="#4d443a" stroke="#4d443a"></path><path d="M198.8 600L252.7 600L230.8 536Z" fill="#bb7150" stroke="#bb7150"></path><path d="M114.9 394L139.8 449L162.8 393Z" fill="#403d39" stroke="#403d39"></path><path d="M162.8 393L139.8 449L192.8 417Z" fill="#68533e" stroke="#68533e"></path><path d="M197.8 136L144.8 202L229.8 201Z" fill="#68533e" stroke="#68533e"></path><path d="M162.8 230L110.9 286L149.8 304Z" fill="#68533e" stroke="#68533e"></path><path d="M471.5 0L404.5 0L427.5 49Z" fill="#4d443a" stroke="#4d443a"></path><path d="M810.1 450L786.1 399L728.2 464Z" fill="#e07a5f" stroke="#e07a5f"></path><path d="M579.4 54L512.4 0L515.4 67Z" fill="#a96c4b" stroke="#a96c4b"></path><path d="M276.7 0L264.7 53L325.6 35Z" fill="#bb7150" stroke="#bb7150"></path><path d="M325.6 35L264.7 53L324.6 117Z" fill="#403d39" stroke="#403d39"></path><path d="M786.1 399L792.1 365L726.2 400Z" fill="#68533e" stroke="#68533e"></path><path d="M751.2 558L749.2 503L704.2 540Z" fill="#cd7657" stroke="#cd7657"></path><path d="M704.2 540L749.2 503L670.2 491Z" fill="#4d443a" stroke="#4d443a"></path><path d="M404.5 0L386.6 0L427.5 49Z" fill="#68533e" stroke="#68533e"></path><path d="M139.8 449L159.8 503L192.8 417Z" fill="#e07a5f" stroke="#e07a5f"></path><path d="M788.1 242L724.2 193L752.2 259Z" fill="#5a4c3c" stroke="#5a4c3c"></path><path d="M746.2 146L672.2 159L695.2 184Z" fill="#775a40" stroke="#775a40"></path><path d="M579.4 54L585.4 0L512.4 0Z" fill="#bb7150" stroke="#bb7150"></path><path d="M809.1 214L788.1 242L829.1 286Z" fill="#876043" stroke="#876043"></path><path d="M778.1 312L788.1 242L752.2 259Z" fill="#876043" stroke="#876043"></path><path d="M110.9 286L141.8 343L149.8 304Z" fill="#403d39" stroke="#403d39"></path><path d="M141.8 343L114.9 394L162.8 393Z" fill="#68533e" stroke="#68533e"></path><path d="M121.9 544L168.8 547L159.8 503Z" fill="#775a40" stroke="#775a40"></path><path d="M809.1 214L746.2 146L724.2 193Z" fill="#5a4c3c" stroke="#5a4c3c"></path><path d="M97.9 263L110.9 286L162.8 230Z" fill="#a96c4b" stroke="#a96c4b"></path><path d="M700.2 91L674.2 61L628.3 117Z" fill="#bb7150" stroke="#bb7150"></path><path d="M674.2 61L643.3 37L628.3 117Z" fill="#986647" stroke="#986647"></path><path d="M101.9 462L159.8 503L139.8 449Z" fill="#e07a5f" stroke="#e07a5f"></path><path d="M159.8 503L168.8 547L220.8 504Z" fill="#a96c4b" stroke="#a96c4b"></path><path d="M197.8 136L141.8 143L144.8 202Z" fill="#986647" stroke="#986647"></path><path d="M219.8 43L191.8 91L251.7 109Z" fill="#68533e" stroke="#68533e"></path><path d="M643.3 37L585.4 0L579.4 54Z" fill="#bb7150" stroke="#bb7150"></path><path d="M645.3 600L697.2 600L704.2 540Z" fill="#a96c4b" stroke="#a96c4b"></path><path d="M106.9 205L97.9 263L162.8 230Z" fill="#4d443a" stroke="#4d443a"></path><path d="M110.9 286L89.9 334L141.8 343Z" fill="#68533e" stroke="#68533e"></path><path d="M106.9 205L162.8 230L144.8 202Z" fill="#876043" stroke="#876043"></path><path d="M386.6 0L306.6 0L325.6 35Z" fill="#986647" stroke="#986647"></path><path d="M264.7 53L219.8 43L251.7 109Z" fill="#5a4c3c" stroke="#5a4c3c"></path><path d="M64.9 319L89.9 334L110.9 286Z" fill="#e07a5f" stroke="#e07a5f"></path><path d="M114.9 394L101.9 462L139.8 449Z" fill="#5a4c3c" stroke="#5a4c3c"></path><path d="M154.8 90L141.8 143L197.8 136Z" fill="#68533e" stroke="#68533e"></path><path d="M746.2 146L738.2 96L700.2 91Z" fill="#bb7150" stroke="#bb7150"></path><path d="M700.2 91L729.2 53L674.2 61Z" fill="#876043" stroke="#876043"></path><path d="M678.2 0L644.3 0L643.3 37Z" fill="#876043" stroke="#876043"></path><path d="M643.3 37L644.3 0L585.4 0Z" fill="#e07a5f" stroke="#e07a5f"></path><path d="M796.1 137L738.2 96L746.2 146Z" fill="#403d39" stroke="#403d39"></path><path d="M168.8 547L198.8 600L230.8 536Z" fill="#a96c4b" stroke="#a96c4b"></path><path d="M117.9 161L106.9 205L144.8 202Z" fill="#bb7150" stroke="#bb7150"></path><path d="M727.2 600L751.2 558L704.2 540Z" fill="#68533e" stroke="#68533e"></path><path d="M749.2 503L810.1 450L728.2 464Z" fill="#4d443a" stroke="#4d443a"></path><path d="M225.8 0L219.8 43L264.7 53Z" fill="#5a4c3c" stroke="#5a4c3c"></path><path d="M191.8 91L154.8 90L197.8 136Z" fill="#876043" stroke="#876043"></path><path d="M788.1 242L809.1 214L724.2 193Z" fill="#a96c4b" stroke="#a96c4b"></path><path d="M829.1 286L788.1 242L778.1 312Z" fill="#cd7657" stroke="#cd7657"></path><path d="M853.1 416L856.1 335L792.1 365Z" fill="#bb7150" stroke="#bb7150"></path><path d="M856.1 335L829.1 286L778.1 312Z" fill="#4d443a" stroke="#4d443a"></path><path d="M810.1 503L810.1 450L749.2 503Z" fill="#cd7657" stroke="#cd7657"></path><path d="M49.9 431L101.9 462L114.9 394Z" fill="#cd7657" stroke="#cd7657"></path><path d="M168.8 547L138.8 600L198.8 600Z" fill="#5a4c3c" stroke="#5a4c3c"></path><path d="M856.1 335L778.1 312L792.1 365Z" fill="#775a40" stroke="#775a40"></path><path d="M306.6 0L276.7 0L325.6 35Z" fill="#a96c4b" stroke="#a96c4b"></path><path d="M103.9 99L117.9 161L141.8 143Z" fill="#986647" stroke="#986647"></path><path d="M141.8 143L117.9 161L144.8 202Z" fill="#5a4c3c" stroke="#5a4c3c"></path><path d="M697.2 600L727.2 600L704.2 540Z" fill="#775a40" stroke="#775a40"></path><path d="M678.2 0L643.3 37L674.2 61Z" fill="#4d443a" stroke="#4d443a"></path><path d="M146.8 62L154.8 90L191.8 91Z" fill="#a96c4b" stroke="#a96c4b"></path><path d="M146.8 62L191.8 91L219.8 43Z" fill="#cd7657" stroke="#cd7657"></path><path d="M59.9 267L110.9 286L97.9 263Z" fill="#986647" stroke="#986647"></path><path d="M59.9 267L64.9 319L110.9 286Z" fill="#68533e" stroke="#68533e"></path><path d="M37.9 359L47.9 407L114.9 394Z" fill="#cd7657" stroke="#cd7657"></path><path d="M59.9 267L97.9 263L106.9 205Z" fill="#68533e" stroke="#68533e"></path><path d="M738.2 96L729.2 53L700.2 91Z" fill="#876043" stroke="#876043"></path><path d="M799.1 88L729.2 53L738.2 96Z" fill="#bb7150" stroke="#bb7150"></path><path d="M849.1 185L796.1 137L809.1 214Z" fill="#876043" stroke="#876043"></path><path d="M809.1 214L796.1 137L746.2 146Z" fill="#68533e" stroke="#68533e"></path><path d="M802.1 551L749.2 503L751.2 558Z" fill="#cd7657" stroke="#cd7657"></path><path d="M802.1 551L810.1 503L749.2 503Z" fill="#cd7657" stroke="#cd7657"></path><path d="M853.1 416L792.1 365L786.1 399Z" fill="#4d443a" stroke="#4d443a"></path><path d="M98.9 519L159.8 503L101.9 462Z" fill="#986647" stroke="#986647"></path><path d="M98.9 519L121.9 544L159.8 503Z" fill="#bb7150" stroke="#bb7150"></path><path d="M59.9 186L59.9 267L106.9 205Z" fill="#bb7150" stroke="#bb7150"></path><path d="M59.9 186L106.9 205L117.9 161Z" fill="#bb7150" stroke="#bb7150"></path><path d="M729.2 53L678.2 0L674.2 61Z" fill="#e07a5f" stroke="#e07a5f"></path><path d="M845.1 431L786.1 399L810.1 450Z" fill="#bb7150" stroke="#bb7150"></path><path d="M866.1 241L849.1 185L809.1 214Z" fill="#68533e" stroke="#68533e"></path><path d="M63.9 532L98.9 519L50.9 517Z" fill="#775a40" stroke="#775a40"></path><path d="M846.1 514L845.1 431L810.1 450Z" fill="#68533e" stroke="#68533e"></path><path d="M276.7 0L225.8 0L264.7 53Z" fill="#cd7657" stroke="#cd7657"></path><path d="M900 404L853.1 416L900 460Z" fill="#cd7657" stroke="#cd7657"></path><path d="M845.1 431L853.1 416L786.1 399Z" fill="#cd7657" stroke="#cd7657"></path><path d="M811.1 600L802.1 551L751.2 558Z" fill="#cd7657" stroke="#cd7657"></path><path d="M810.1 503L846.1 514L810.1 450Z" fill="#bb7150" stroke="#bb7150"></path><path d="M170.8 0L146.8 62L219.8 43Z" fill="#e07a5f" stroke="#e07a5f"></path><path d="M154.8 90L103.9 99L141.8 143Z" fill="#4d443a" stroke="#4d443a"></path><path d="M37.9 359L89.9 334L64.9 319Z" fill="#986647" stroke="#986647"></path><path d="M37.9 359L114.9 394L89.9 334Z" fill="#986647" stroke="#986647"></path><path d="M94.9 600L138.8 600L121.9 544Z" fill="#68533e" stroke="#68533e"></path><path d="M121.9 544L138.8 600L168.8 547Z" fill="#5a4c3c" stroke="#5a4c3c"></path><path d="M47.9 407L49.9 431L114.9 394Z" fill="#4d443a" stroke="#4d443a"></path><path d="M98.9 519L63.9 532L121.9 544Z" fill="#5a4c3c" stroke="#5a4c3c"></path><path d="M0 336L37.9 359L64.9 319Z" fill="#a96c4b" stroke="#a96c4b"></path><path d="M47.9 407L0 444L49.9 431Z" fill="#4d443a" stroke="#4d443a"></path><path d="M866.1 241L809.1 214L829.1 286Z" fill="#68533e" stroke="#68533e"></path><path d="M796.1 137L799.1 88L738.2 96Z" fill="#775a40" stroke="#775a40"></path><path d="M900 284L829.1 286L856.1 335Z" fill="#5a4c3c" stroke="#5a4c3c"></path><path d="M900 284L866.1 241L829.1 286Z" fill="#68533e" stroke="#68533e"></path><path d="M52.9 157L59.9 186L117.9 161Z" fill="#5a4c3c" stroke="#5a4c3c"></path><path d="M0 301L0 336L64.9 319Z" fill="#e07a5f" stroke="#e07a5f"></path><path d="M146.8 62L103.9 99L154.8 90Z" fill="#986647" stroke="#986647"></path><path d="M834.1 92L799.1 88L796.1 137Z" fill="#4d443a" stroke="#4d443a"></path><path d="M729.2 53L723.2 0L678.2 0Z" fill="#e07a5f" stroke="#e07a5f"></path><path d="M790.1 0L723.2 0L729.2 53Z" fill="#5a4c3c" stroke="#5a4c3c"></path><path d="M848.1 535L846.1 514L810.1 503Z" fill="#4d443a" stroke="#4d443a"></path><path d="M900 404L900 335L856.1 335Z" fill="#4d443a" stroke="#4d443a"></path><path d="M225.8 0L170.8 0L219.8 43Z" fill="#986647" stroke="#986647"></path><path d="M146.8 62L97.9 66L103.9 99Z" fill="#5a4c3c" stroke="#5a4c3c"></path><path d="M50.9 517L101.9 462L49.9 431Z" fill="#e07a5f" stroke="#e07a5f"></path><path d="M50.9 517L98.9 519L101.9 462Z" fill="#cd7657" stroke="#cd7657"></path><path d="M42.9 93L52.9 157L103.9 99Z" fill="#775a40" stroke="#775a40"></path><path d="M103.9 99L52.9 157L117.9 161Z" fill="#4d443a" stroke="#4d443a"></path><path d="M0 301L64.9 319L59.9 267Z" fill="#a96c4b" stroke="#a96c4b"></path><path d="M811.1 600L848.1 535L802.1 551Z" fill="#bb7150" stroke="#bb7150"></path><path d="M802.1 551L848.1 535L810.1 503Z" fill="#bb7150" stroke="#bb7150"></path><path d="M900 404L856.1 335L853.1 416Z" fill="#5a4c3c" stroke="#5a4c3c"></path><path d="M849.1 185L860.1 155L796.1 137Z" fill="#5a4c3c" stroke="#5a4c3c"></path><path d="M799.1 88L805.1 62L729.2 53Z" fill="#cd7657" stroke="#cd7657"></path><path d="M900 212L860.1 155L849.1 185Z" fill="#5a4c3c" stroke="#5a4c3c"></path><path d="M834.1 92L805.1 62L799.1 88Z" fill="#876043" stroke="#876043"></path><path d="M0 480L50.9 517L49.9 431Z" fill="#cd7657" stroke="#cd7657"></path><path d="M853.1 416L845.1 431L900 460Z" fill="#986647" stroke="#986647"></path><path d="M866.1 241L900 212L849.1 185Z" fill="#876043" stroke="#876043"></path><path d="M727.2 600L811.1 600L751.2 558Z" fill="#4d443a" stroke="#4d443a"></path><path d="M95.9 0L97.9 66L146.8 62Z" fill="#5a4c3c" stroke="#5a4c3c"></path><path d="M900 335L900 284L856.1 335Z" fill="#e07a5f" stroke="#e07a5f"></path><path d="M61.9 600L94.9 600L63.9 532Z" fill="#e07a5f" stroke="#e07a5f"></path><path d="M63.9 532L94.9 600L121.9 544Z" fill="#4d443a" stroke="#4d443a"></path><path d="M860.1 155L834.1 92L796.1 137Z" fill="#cd7657" stroke="#cd7657"></path><path d="M900 460L845.1 431L846.1 514Z" fill="#bb7150" stroke="#bb7150"></path><path d="M900 284L900 247L866.1 241Z" fill="#775a40" stroke="#775a40"></path><path d="M900 112L849.1 57L834.1 92Z" fill="#cd7657" stroke="#cd7657"></path><path d="M0 301L59.9 267L0 235Z" fill="#cd7657" stroke="#cd7657"></path><path d="M37.9 359L0 384L47.9 407Z" fill="#876043" stroke="#876043"></path><path d="M0 235L59.9 267L59.9 186Z" fill="#e07a5f" stroke="#e07a5f"></path><path d="M0 336L0 384L37.9 359Z" fill="#4d443a" stroke="#4d443a"></path><path d="M900 247L900 212L866.1 241Z" fill="#775a40" stroke="#775a40"></path><path d="M900 497L900 460L846.1 514Z" fill="#a96c4b" stroke="#a96c4b"></path><path d="M900 497L846.1 514L848.1 535Z" fill="#68533e" stroke="#68533e"></path><path d="M0 206L0 235L59.9 186Z" fill="#a96c4b" stroke="#a96c4b"></path><path d="M0 206L59.9 186L0 164Z" fill="#a96c4b" stroke="#a96c4b"></path><path d="M0 384L0 444L47.9 407Z" fill="#5a4c3c" stroke="#5a4c3c"></path><path d="M0 535L61.9 600L63.9 532Z" fill="#403d39" stroke="#403d39"></path><path d="M0 164L59.9 186L52.9 157Z" fill="#403d39" stroke="#403d39"></path><path d="M849.1 57L805.1 62L834.1 92Z" fill="#bb7150" stroke="#bb7150"></path><path d="M838.1 0L790.1 0L805.1 62Z" fill="#876043" stroke="#876043"></path><path d="M805.1 62L790.1 0L729.2 53Z" fill="#e07a5f" stroke="#e07a5f"></path><path d="M900 549L900 497L848.1 535Z" fill="#bb7150" stroke="#bb7150"></path><path d="M0 535L63.9 532L50.9 517Z" fill="#cd7657" stroke="#cd7657"></path><path d="M36.9 55L42.9 93L97.9 66Z" fill="#876043" stroke="#876043"></path><path d="M97.9 66L42.9 93L103.9 99Z" fill="#a96c4b" stroke="#a96c4b"></path><path d="M0 444L0 480L49.9 431Z" fill="#775a40" stroke="#775a40"></path><path d="M900 112L834.1 92L860.1 155Z" fill="#a96c4b" stroke="#a96c4b"></path><path d="M900 212L900 143L860.1 155Z" fill="#4d443a" stroke="#4d443a"></path><path d="M811.1 600L859.1 600L848.1 535Z" fill="#cd7657" stroke="#cd7657"></path><path d="M0 105L0 164L52.9 157Z" fill="#e07a5f" stroke="#e07a5f"></path><path d="M170.8 0L95.9 0L146.8 62Z" fill="#a96c4b" stroke="#a96c4b"></path><path d="M42.9 93L0 105L52.9 157Z" fill="#5a4c3c" stroke="#5a4c3c"></path><path d="M859.1 600L900 549L848.1 535Z" fill="#986647" stroke="#986647"></path><path d="M900 143L900 112L860.1 155Z" fill="#cd7657" stroke="#cd7657"></path><path d="M0 480L0 535L50.9 517Z" fill="#775a40" stroke="#775a40"></path><path d="M95.9 0L36.9 55L97.9 66Z" fill="#986647" stroke="#986647"></path><path d="M900 39L838.1 0L849.1 57Z" fill="#cd7657" stroke="#cd7657"></path><path d="M849.1 57L838.1 0L805.1 62Z" fill="#5a4c3c" stroke="#5a4c3c"></path><path d="M0 69L0 105L42.9 93Z" fill="#a96c4b" stroke="#a96c4b"></path><path d="M859.1 600L900 600L900 549Z" fill="#bb7150" stroke="#bb7150"></path><path d="M0 0L0 69L36.9 55Z" fill="#403d39" stroke="#403d39"></path><path d="M36.9 55L0 69L42.9 93Z" fill="#bb7150" stroke="#bb7150"></path><path d="M0 535L0 600L61.9 600Z" fill="#403d39" stroke="#403d39"></path><path d="M95.9 0L39.9 0L36.9 55Z" fill="#bb7150" stroke="#bb7150"></path><path d="M900 112L900 39L849.1 57Z" fill="#876043" stroke="#876043"></path><path d="M900 39L900 0L838.1 0Z" fill="#403d39" stroke="#403d39"></path><path d="M39.9 0L0 0L36.9 55Z" fill="#775a40" stroke="#775a40"></path></g></svg>